<svg version="1.1" id="Layer_1" xmlns="http://www.w3.org/2000/svg" xmlns:xlink="http://www.w3.org/1999/xlink" x="0px" y="0px"
	 width="100%" viewBox="0 0 352 352" enable-background="new 0 0 352 352" xml:space="preserve">
<path fill="#000000" opacity="1.000000" stroke="none" 
	d="
M177.000092,277.650208 
	C211.157288,277.657349 244.814468,277.668182 278.471649,277.669495 
	C285.600952,277.669800 285.594055,277.583160 285.728424,270.369293 
	C285.808044,266.093628 285.157867,261.768646 286.186584,257.533234 
	C288.636017,256.870850 289.690277,258.668732 290.901794,259.873657 
	C298.578796,267.508728 306.165863,275.234314 313.843811,282.868439 
	C315.517792,284.532867 316.970062,285.953827 314.677734,288.214508 
	C305.900879,296.870148 297.169250,305.571686 288.395966,314.230957 
	C288.078491,314.544281 287.501099,314.594269 286.685272,314.903137 
	C284.794556,311.088318 285.831757,307.073090 285.748077,303.240295 
	C285.565765,294.889893 285.683380,294.889130 277.465515,294.890259 
	C213.816971,294.899017 150.168427,294.912903 86.519890,294.909821 
	C75.162827,294.909271 72.762886,292.465759 72.763206,281.154388 
	C72.765045,217.339203 72.764626,153.524017 72.756638,89.708832 
	C72.755707,82.316589 72.731812,82.308891 65.319923,82.293785 
	C59.395569,82.281708 53.471169,82.291344 47.836094,82.291344 
	C46.923504,79.829002 48.240662,79.043846 49.121029,78.157883 
	C58.633289,68.585045 68.220268,59.085926 77.676147,49.457962 
	C79.895844,47.197868 81.512703,46.964188 83.853119,49.353588 
	C93.057167,58.750256 102.422607,67.988693 111.702927,77.310974 
	C112.829796,78.442932 114.254478,79.445488 114.506729,82.322563 
	C108.214699,82.322563 102.151016,82.578461 96.120720,82.239822 
	C91.478966,81.979156 90.181633,83.657906 90.191589,88.224815 
	C90.324226,149.040726 90.275101,209.856995 90.289917,270.673187 
	C90.291504,277.192383 90.711609,277.624939 97.523468,277.634186 
	C123.848961,277.669830 150.174545,277.649780 177.000092,277.650208 
z"/>
<path fill="#000000" opacity="1.000000" stroke="none" 
	d="
M158.350952,213.999893 
	C158.355133,230.996506 158.214981,247.495209 158.454391,263.988403 
	C158.522079,268.651398 157.324127,270.510406 152.345551,270.356415 
	C141.691345,270.026917 131.017731,270.141998 120.356316,270.323944 
	C116.398415,270.391479 114.692612,269.268555 114.700668,264.977448 
	C114.804779,209.488953 114.753563,154.000214 114.794212,98.511566 
	C114.798584,92.542107 116.333412,91.070992 122.188217,91.031990 
	C131.852509,90.967598 141.517883,90.958458 151.182083,91.026512 
	C157.200455,91.068886 158.341705,92.296532 158.344238,98.523743 
	C158.359863,136.849136 158.351135,175.174515 158.350952,213.999893 
z"/>
<path fill="#000000" opacity="1.000000" stroke="none" 
	d="
M238.176941,141.580261 
	C245.979172,141.595596 253.305771,141.597153 260.632202,141.632355 
	C267.225525,141.664032 268.206085,142.572845 268.211090,149.114548 
	C268.234680,179.919830 268.212646,210.725159 268.208496,241.530472 
	C268.207397,249.523148 268.137848,257.516876 268.249084,265.508026 
	C268.295929,268.873169 267.037598,270.295319 263.553619,270.260071 
	C252.231918,270.145386 240.907196,270.160522 229.585648,270.294708 
	C225.974289,270.337524 224.589279,269.015839 224.597763,265.329559 
	C224.687897,226.198685 224.697922,187.067490 224.626556,147.936554 
	C224.617981,143.235062 226.509827,141.142242 231.209763,141.483780 
	C233.364563,141.640366 235.536865,141.556152 238.176941,141.580261 
z"/>
<path fill="#000000" opacity="1.000000" stroke="none" 
	d="
M169.656479,224.999847 
	C169.654861,213.513367 169.637085,202.526871 169.658966,191.540466 
	C169.670349,185.825638 170.880402,184.291489 176.562714,184.162766 
	C186.378738,183.940399 196.205704,183.928665 206.022583,184.115936 
	C212.160126,184.233032 213.283981,185.557800 213.292221,191.589661 
	C213.325394,215.893265 213.227188,240.197449 213.384964,264.500092 
	C213.412842,268.795105 212.119476,270.417511 207.693787,270.324738 
	C196.878799,270.098145 186.052017,270.127686 175.236832,270.365662 
	C170.768829,270.463989 169.531662,268.678864 169.595886,264.451111 
	C169.793091,251.470032 169.660919,238.483978 169.656479,224.999847 
z"/>
</svg>